<svg width="279" height="240" viewBox="0 0 279 240" fill="none" xmlns="http://www.w3.org/2000/svg">
<path d="M138.219 222.286C198.515 222.286 247.395 210.098 247.395 195.063C247.395 180.028 198.515 167.84 138.219 167.84C77.9227 167.84 29.043 180.028 29.043 195.063C29.043 210.098 77.9227 222.286 138.219 222.286Z" fill="url(#paint0_linear_6703_12638)"/>
<path d="M61.167 88.9038C61.167 84.8748 64.026 82.4078 67.554 83.3938L129.922 100.789C124.755 105.08 121.464 111.555 121.464 118.797V171.62C121.464 181.762 127.916 190.395 136.939 193.642L67.555 174.283C64.028 173.296 61.168 169.229 61.168 165.2V145.827C61.168 142.936 63.022 143.444 63.998 143.718C70.327 145.489 75.458 141.063 75.458 133.832C75.458 126.601 70.327 119.306 63.998 117.535C63.021 117.262 61.168 116.047 61.168 113.511L61.167 88.9038Z" fill="url(#paint1_linear_6703_12638)"/>
<path d="M122.042 66.7517C122.042 45.8287 139.003 28.8677 159.927 28.8677C180.85 28.8677 197.812 45.8287 197.812 66.7517C197.812 78.9927 192.006 89.8777 182.998 96.8037C191.978 100.074 198.392 108.686 198.392 118.797V171.62V119.941L129.922 100.789C131.968 99.0887 134.31 97.7307 136.858 96.8037C127.849 89.8777 122.042 78.9927 122.042 66.7517ZM140.184 194.551C139.071 194.324 137.987 194.02 136.938 193.643L140.184 194.551Z" fill="url(#paint2_linear_6703_12638)"/>
<path d="M198.392 171.62C198.392 171.62 198.392 176.607 198.392 184.924C198.392 196.328 185.809 206.955 170.839 203.231C162.031 201.04 140.184 194.551 140.184 194.551L136.938 193.643C127.915 190.396 121.463 181.762 121.463 171.621V118.798C121.463 111.556 124.754 105.081 129.921 100.79L198.391 119.942L198.392 171.62Z" fill="#433DB2"/>
<path d="M93.0659 107.46C93.0659 109.193 91.8309 110.253 90.3069 109.826C88.7839 109.4 87.5479 107.649 87.5479 105.916C87.5479 104.183 88.7829 103.124 90.3069 103.55C91.8309 103.977 93.0659 105.727 93.0659 107.46ZM93.0659 116.961C93.0659 118.694 91.8309 119.754 90.3069 119.328C88.7839 118.901 87.5479 117.15 87.5479 115.418C87.5479 113.685 88.7829 112.625 90.3069 113.051C91.8309 113.478 93.0659 115.229 93.0659 116.961ZM93.0659 126.463C93.0659 128.196 91.8309 129.256 90.3069 128.829C88.7839 128.402 87.5479 126.652 87.5479 124.919C87.5479 123.186 88.7829 122.126 90.3069 122.553C91.8309 122.979 93.0659 124.729 93.0659 126.463ZM93.0659 135.964C93.0659 137.697 91.8309 138.757 90.3069 138.33C88.7839 137.904 87.5479 136.153 87.5479 134.42C87.5479 132.688 88.7829 131.628 90.3069 132.054C91.8309 132.48 93.0659 134.23 93.0659 135.964ZM93.0659 145.466C93.0659 147.198 91.8309 148.258 90.3069 147.832C88.7839 147.405 87.5479 145.654 87.5479 143.922C87.5479 142.189 88.7829 141.129 90.3069 141.555C91.8309 141.981 93.0659 143.732 93.0659 145.466ZM93.0659 154.967C93.0659 156.7 91.8309 157.76 90.3069 157.333C88.7839 156.907 87.5479 155.156 87.5479 153.423C87.5479 151.69 88.7829 150.63 90.3069 151.057C91.8309 151.482 93.0659 153.233 93.0659 154.967ZM93.0659 164.468C93.0659 166.201 91.8309 167.261 90.3069 166.834C88.7839 166.408 87.5479 164.657 87.5479 162.924C87.5479 161.192 88.7829 160.132 90.3069 160.558C91.8309 160.984 93.0659 162.734 93.0659 164.468ZM93.0659 173.97C93.0659 175.703 91.8309 176.762 90.3069 176.336C88.7839 175.909 87.5479 174.159 87.5479 172.426C87.5479 170.693 88.7829 169.633 90.3069 170.06C91.8309 170.485 93.0659 172.236 93.0659 173.97ZM93.0659 97.9586C93.0659 99.6906 91.8309 100.752 90.3069 100.325C88.7839 99.8976 87.5479 98.1476 87.5479 96.4146C87.5479 94.6816 88.7829 93.6216 90.3069 94.0486C91.8309 94.4746 93.0659 96.2256 93.0659 97.9586Z" fill="#FD8FBB"/>
<path d="M104.584 58.6979C104.584 54.9619 107.613 51.9319 111.349 51.9319H113.167C119.449 32.0929 138.008 17.7139 159.927 17.7139C181.845 17.7139 200.405 32.0929 206.687 51.9329L208.504 51.9319C212.241 51.9319 215.27 54.9609 215.27 58.6979V72.5969C215.27 76.3329 212.241 79.3619 208.504 79.3619H207.329C201.764 100.334 182.651 115.789 159.927 115.789V109.763C183.682 109.763 202.94 90.5069 202.94 66.7519C202.94 42.9969 183.683 23.7399 159.928 23.7399C136.172 23.7399 116.915 42.9969 116.915 66.7519C116.915 71.1349 117.593 75.3679 118.816 79.3619H112.549H111.35C107.614 79.3619 104.585 76.3339 104.585 72.5969L104.584 58.6979Z" fill="#244DCD"/>
<path d="M188.069 99.3428C189.761 100.477 191.298 101.825 192.639 103.35C185.955 109.315 177.628 113.475 168.42 115.069C167.546 117.444 165.264 119.139 162.586 119.139C159.154 119.139 156.372 116.357 156.372 112.924C156.372 109.492 159.154 106.71 162.586 106.71C164.581 106.71 166.357 107.65 167.494 109.112C175.273 107.745 182.332 104.289 188.069 99.3428Z" fill="#FEFEFE"/>
<path d="M155.46 66.4758C155.46 64.0078 157.46 62.0078 159.928 62.0078C162.395 62.0078 164.395 64.0078 164.395 66.4758C164.395 68.9428 162.395 70.9428 159.928 70.9428C157.46 70.9418 155.46 68.9418 155.46 66.4758ZM140.966 66.4758C140.966 64.0078 142.966 62.0078 145.434 62.0078C147.902 62.0078 149.902 64.0078 149.902 66.4758C149.902 68.9428 147.902 70.9428 145.434 70.9428C142.966 70.9428 140.966 68.9418 140.966 66.4758ZM169.954 66.4758C169.954 64.0078 171.954 62.0078 174.421 62.0078C176.888 62.0078 178.888 64.0078 178.888 66.4758C178.888 68.9428 176.888 70.9428 174.421 70.9428C171.954 70.9428 169.954 68.9418 169.954 66.4758Z" fill="#FEFEFE"/>
<path d="M121.463 168.159C126.925 167.949 132.521 167.84 138.218 167.84C160.455 167.84 181.139 169.498 198.391 172.345V184.924C198.391 196.328 185.808 206.955 170.838 203.231C162.03 201.04 140.183 194.551 140.183 194.551L136.937 193.643C127.915 190.396 121.462 181.762 121.462 171.621L121.463 168.159Z" fill="url(#paint3_linear_6703_12638)"/>
<defs>
<linearGradient id="paint0_linear_6703_12638" x1="29.043" y1="195.062" x2="247.394" y2="195.062" gradientUnits="userSpaceOnUse">
<stop stop-color="#00F59F"/>
<stop offset="1" stop-color="#4DD8DB"/>
</linearGradient>
<linearGradient id="paint1_linear_6703_12638" x1="142.917" y1="122.304" x2="72.1961" y2="149.503" gradientUnits="userSpaceOnUse">
<stop stop-color="#1350C8"/>
<stop offset="1" stop-color="#F95B9B"/>
</linearGradient>
<linearGradient id="paint2_linear_6703_12638" x1="95.6108" y1="99.6706" x2="220.824" y2="126.37" gradientUnits="userSpaceOnUse">
<stop stop-color="#19DDDF"/>
<stop offset="1" stop-color="#1B2BBB"/>
</linearGradient>
<linearGradient id="paint3_linear_6703_12638" x1="121.463" y1="185.914" x2="198.392" y2="185.914" gradientUnits="userSpaceOnUse">
<stop stop-color="#1B2BBB"/>
<stop offset="0.6487" stop-color="#1A79D6"/>
<stop offset="0.9677" stop-color="#1A9BE2"/>
</linearGradient>
</defs>
</svg>
