<svg width="220" height="220" viewBox="0 0 220 220" fill="none" xmlns="http://www.w3.org/2000/svg">
<path d="M110.176 212.571C170.472 212.571 219.352 200.383 219.352 185.348C219.352 170.313 170.472 158.125 110.176 158.125C49.8798 158.125 1 170.313 1 185.348C1 200.383 49.8798 212.571 110.176 212.571Z" fill="url(#paint0_linear_5711_1373)"/>
<path d="M33.123 79.1899C33.123 75.1609 35.982 72.6939 39.51 73.6799L101.878 91.0749C96.711 95.3659 93.42 101.841 93.42 109.083V161.906C93.42 172.048 99.872 180.681 108.895 183.928L39.511 164.569C35.984 163.582 33.124 159.515 33.124 155.486V136.113C33.124 133.222 34.978 133.73 35.954 134.004C42.283 135.775 47.414 131.349 47.414 124.118C47.414 116.887 42.283 109.592 35.954 107.821C34.977 107.548 33.124 106.333 33.124 103.797L33.123 79.1899Z" fill="url(#paint1_linear_5711_1373)"/>
<path d="M93.998 57.0383C93.998 36.1153 110.959 19.1543 131.883 19.1543C152.806 19.1543 169.768 36.1153 169.768 57.0383C169.768 69.2793 163.962 80.1643 154.954 87.0903C163.934 90.3603 170.348 98.9723 170.348 109.083V161.906V110.227L101.878 91.0753C103.924 89.3753 106.266 88.0173 108.814 87.0903C99.805 80.1643 93.998 69.2793 93.998 57.0383ZM112.14 184.837C111.027 184.61 109.943 184.306 108.894 183.929L112.14 184.837Z" fill="url(#paint2_linear_5711_1373)"/>
<path d="M170.349 161.906C170.349 161.906 170.349 166.893 170.349 175.21C170.349 186.614 157.766 197.241 142.796 193.517C133.988 191.326 112.141 184.837 112.141 184.837L108.895 183.929C99.8719 180.682 93.4199 172.048 93.4199 161.907V109.084C93.4199 101.842 96.7109 95.3672 101.878 91.0762L170.348 110.228L170.349 161.906Z" fill="#433DB2"/>
<path d="M65.0239 97.7458C65.0239 99.4788 63.7889 100.539 62.2649 100.112C60.7419 99.6858 59.5059 97.9348 59.5059 96.2018C59.5059 94.4688 60.7409 93.4098 62.2649 93.8358C63.7889 94.2628 65.0239 96.0128 65.0239 97.7458ZM65.0239 107.247C65.0239 108.98 63.7889 110.04 62.2649 109.614C60.7419 109.187 59.5059 107.436 59.5059 105.704C59.5059 103.971 60.7409 102.911 62.2649 103.337C63.7889 103.764 65.0239 105.515 65.0239 107.247ZM65.0239 116.749C65.0239 118.482 63.7889 119.542 62.2649 119.115C60.7419 118.688 59.5059 116.938 59.5059 115.205C59.5059 113.472 60.7409 112.412 62.2649 112.839C63.7889 113.265 65.0239 115.015 65.0239 116.749ZM65.0239 126.25C65.0239 127.983 63.7889 129.043 62.2649 128.616C60.7419 128.19 59.5059 126.439 59.5059 124.706C59.5059 122.974 60.7409 121.914 62.2649 122.34C63.7889 122.766 65.0239 124.516 65.0239 126.25ZM65.0239 135.752C65.0239 137.484 63.7889 138.544 62.2649 138.118C60.7419 137.691 59.5059 135.94 59.5059 134.208C59.5059 132.475 60.7409 131.415 62.2649 131.841C63.7889 132.267 65.0239 134.018 65.0239 135.752ZM65.0239 145.253C65.0239 146.986 63.7889 148.046 62.2649 147.619C60.7419 147.193 59.5059 145.442 59.5059 143.709C59.5059 141.976 60.7409 140.916 62.2649 141.343C63.7889 141.768 65.0239 143.519 65.0239 145.253ZM65.0239 154.754C65.0239 156.487 63.7889 157.547 62.2649 157.12C60.7419 156.694 59.5059 154.943 59.5059 153.21C59.5059 151.478 60.7409 150.418 62.2649 150.844C63.7889 151.27 65.0239 153.02 65.0239 154.754ZM65.0239 164.256C65.0239 165.989 63.7889 167.048 62.2649 166.622C60.7419 166.195 59.5059 164.445 59.5059 162.712C59.5059 160.979 60.7409 159.919 62.2649 160.346C63.7889 160.771 65.0239 162.522 65.0239 164.256ZM65.0239 88.2448C65.0239 89.9768 63.7889 91.0378 62.2649 90.6108C60.7419 90.1838 59.5059 88.4338 59.5059 86.7008C59.5059 84.9678 60.7409 83.9078 62.2649 84.3348C63.7889 84.7608 65.0239 86.5118 65.0239 88.2448Z" fill="#FD8FBB"/>
<path d="M76.541 48.984C76.541 45.248 79.57 42.218 83.306 42.218H85.124C91.406 22.379 109.965 8 131.884 8C153.802 8 172.362 22.379 178.644 42.219L180.461 42.218C184.198 42.218 187.227 45.247 187.227 48.984V62.883C187.227 66.619 184.198 69.648 180.461 69.648H179.286C173.721 90.62 154.608 106.075 131.884 106.075V100.049C155.639 100.049 174.897 80.793 174.897 57.038C174.897 33.283 155.64 14.026 131.885 14.026C108.129 14.026 88.872 33.283 88.872 57.038C88.872 61.421 89.55 65.654 90.773 69.648H84.506H83.307C79.571 69.648 76.542 66.62 76.542 62.883L76.541 48.984Z" fill="#244DCD"/>
<path d="M160.025 89.6289C161.717 90.7629 163.254 92.1109 164.595 93.6359C157.911 99.6009 149.584 103.761 140.376 105.355C139.502 107.73 137.22 109.425 134.542 109.425C131.11 109.425 128.328 106.643 128.328 103.21C128.328 99.7779 131.11 96.9959 134.542 96.9959C136.537 96.9959 138.313 97.9359 139.45 99.3979C147.229 98.0309 154.288 94.5749 160.025 89.6289Z" fill="#FEFEFE"/>
<path d="M127.418 56.7629C127.418 54.2949 129.418 52.2949 131.886 52.2949C134.353 52.2949 136.353 54.2949 136.353 56.7629C136.353 59.2299 134.353 61.2299 131.886 61.2299C129.418 61.2289 127.418 59.2289 127.418 56.7629ZM112.924 56.7629C112.924 54.2949 114.924 52.2949 117.392 52.2949C119.86 52.2949 121.86 54.2949 121.86 56.7629C121.86 59.2299 119.86 61.2299 117.392 61.2299C114.924 61.2299 112.924 59.2289 112.924 56.7629ZM141.912 56.7629C141.912 54.2949 143.912 52.2949 146.379 52.2949C148.846 52.2949 150.846 54.2949 150.846 56.7629C150.846 59.2299 148.846 61.2299 146.379 61.2299C143.912 61.2299 141.912 59.2289 141.912 56.7629Z" fill="#FEFEFE"/>
<path d="M93.4209 158.444C98.8829 158.234 104.479 158.125 110.176 158.125C132.413 158.125 153.097 159.783 170.349 162.63V175.209C170.349 186.613 157.766 197.24 142.796 193.516C133.988 191.325 112.141 184.836 112.141 184.836L108.895 183.928C99.8729 180.681 93.4199 172.047 93.4199 161.906L93.4209 158.444Z" fill="url(#paint3_linear_5711_1373)"/>
<defs>
<linearGradient id="paint0_linear_5711_1373" x1="1" y1="185.347" x2="219.352" y2="185.347" gradientUnits="userSpaceOnUse">
<stop stop-color="#00F59F"/>
<stop offset="1" stop-color="#4DD8DB"/>
</linearGradient>
<linearGradient id="paint1_linear_5711_1373" x1="114.873" y1="112.59" x2="44.1521" y2="139.789" gradientUnits="userSpaceOnUse">
<stop stop-color="#1350C8"/>
<stop offset="1" stop-color="#F95B9B"/>
</linearGradient>
<linearGradient id="paint2_linear_5711_1373" x1="67.5668" y1="89.9572" x2="192.78" y2="116.657" gradientUnits="userSpaceOnUse">
<stop stop-color="#19DDDF"/>
<stop offset="1" stop-color="#1B2BBB"/>
</linearGradient>
<linearGradient id="paint3_linear_5711_1373" x1="93.4208" y1="176.199" x2="170.35" y2="176.199" gradientUnits="userSpaceOnUse">
<stop stop-color="#1B2BBB"/>
<stop offset="0.6487" stop-color="#1A79D6"/>
<stop offset="0.9677" stop-color="#1A9BE2"/>
</linearGradient>
</defs>
</svg>
